<svg width="500" height="320" xmlns="http://www.w3.org/2000/svg">
  <defs>
    <style>
      .title { font-family: Arial, sans-serif; font-size: 16px; font-weight: bold; fill: #2c3e50; }
      .code-text { font-family: 'Courier New', monospace; font-size: 14px; fill: #2c3e50; }
      .comment { font-family: 'Courier New', monospace; font-size: 12px; fill: #7f8c8d; }
      .keyword { font-family: 'Courier New', monospace; font-size: 14px; fill: #3498db; font-weight: bold; }
      .variable { font-family: 'Courier New', monospace; font-size: 14px; fill: #e74c3c; font-weight: bold; }
      .formula { font-family: Arial, sans-serif; font-size: 18px; fill: #2c3e50; }
      .formula-var { font-family: Arial, sans-serif; font-size: 18px; fill: #e74c3c; font-weight: bold; }
      .box { fill: #ecf0f1; stroke: #bdc3c7; stroke-width: 2; }
      .arrow { fill: #7f8c8d; stroke: #7f8c8d; stroke-width: 2; }
    </style>
  </defs>
  
  <!-- Title -->
  <text x="250" y="25" text-anchor="middle" class="title">Software Abstraction: Complex Kernel → Simple Loop</text>
  
  <!-- Complex kernel box -->
  <rect x="50" y="50" width="180" height="120" rx="5" class="box"/>
  <text x="60" y="70" class="comment">// Complex GPU kernel</text>
  <text x="60" y="90" class="keyword">fn</text>
  <text x="85" y="90" class="code-text">my_kernel(...):</text>
  <text x="70" y="110" class="code-text">setup_shared_memory()</text>
  <text x="70" y="130" class="code-text">sync_threads()</text>
  <text x="70" y="150" class="keyword">for</text>
  <text x="100" y="150" class="code-text">i in range(...):</text>
  <text x="80" y="170" class="comment">// actual work...</text>
  
  <!-- Arrow -->
  <path d="M 240 110 L 270 110" class="arrow" marker-end="url(#arrowhead)"/>
  
  <!-- Simple loop box -->
  <rect x="280" y="50" width="170" height="120" rx="5" class="box"/>
  <text x="290" y="70" class="comment">// Roofline view</text>
  <text x="290" y="90" class="keyword">for</text>
  <text x="320" y="90" class="code-text">i in range(n):</text>
  <text x="300" y="110" class="code-text">compute(</text>
  <text x="370" y="110" class="variable">N</text>
  <text x="380" y="110" class="code-text">flops)</text>
  <text x="300" y="130" class="code-text">transfer(</text>
  <text x="370" y="130" class="variable">V</text>
  <text x="380" y="130" class="code-text">bytes)</text>
  <text x="290" y="150" class="comment">// repeat until done</text>
  
  <!-- Arrow down -->
  <path d="M 365 180 L 365 210" class="arrow" marker-end="url(#arrowhead)"/>
  
  <!-- Formula box -->
  <rect x="280" y="220" width="170" height="70" rx="5" class="box"/>
  <text x="340" y="240" class="title">Operational Intensity</text>
  <text x="365" y="265" text-anchor="middle" class="formula">I = </text>
  <text x="385" y="265" class="formula-var">N</text>
  <text x="400" y="265" class="formula"> / </text>
  <text x="415" y="265" class="formula-var">V</text>
  <text x="365" y="285" text-anchor="middle" class="comment">flops per byte</text>
  
  <!-- Define arrow marker -->
  <defs>
    <marker id="arrowhead" markerWidth="10" markerHeight="7" refX="9" refY="3.5" orient="auto">
      <polygon points="0 0, 10 3.5, 0 7" fill="#7f8c8d"/>
    </marker>
  </defs>
</svg>
