<?xml version="1.0" encoding="UTF-8" standalone="no"?>
<!DOCTYPE svg PUBLIC "-//W3C//DTD SVG 1.1//EN"
 "http://www.w3.org/Graphics/SVG/1.1/DTD/svg11.dtd">
<!-- Generated by graphviz version 2.40.1 (20161225.0304)
 -->
<!-- Title: %3 Pages: 1 -->
<svg width="693pt" height="227pt"
 viewBox="0.00 0.00 692.79 227.00" xmlns="http://www.w3.org/2000/svg" xmlns:xlink="http://www.w3.org/1999/xlink">
<g id="graph0" class="graph" transform="scale(1 1) rotate(0) translate(4 223)">
<title>%3</title>
<polygon fill="#ffffff" stroke="transparent" points="-4,4 -4,-223 688.7878,-223 688.7878,4 -4,4"/>
<g id="clust1" class="cluster">
<title>cluster31</title>
<path fill="none" stroke="#000000" d="M252,-8C252,-8 642,-8 642,-8 648,-8 654,-14 654,-20 654,-20 654,-143 654,-143 654,-149 648,-155 642,-155 642,-155 252,-155 252,-155 246,-155 240,-149 240,-143 240,-143 240,-20 240,-20 240,-14 246,-8 252,-8"/>
<text text-anchor="middle" x="639" y="-15.8" font-family="Times,serif" font-size="14.00" fill="#000000">31</text>
</g>
<!-- angle_of_shot_degrees -->
<g id="node1" class="node">
<title>angle_of_shot_degrees</title>
<polygon fill="none" stroke="#000000" points="230,-147 0,-147 0,-111 230,-111 230,-147"/>
<text text-anchor="middle" x="115" y="-125.3" font-family="Times,serif" font-size="14.00" fill="#000000">angle_of_shot_degrees ~ Deterministic</text>
</g>
<!-- variance_of_distance -->
<g id="node2" class="node">
<title>variance_of_distance</title>
<ellipse fill="none" stroke="#000000" cx="547" cy="-201" rx="137.5759" ry="18"/>
<text text-anchor="middle" x="547" y="-197.3" font-family="Times,serif" font-size="14.00" fill="#000000">variance_of_distance ~ HalfNormal</text>
</g>
<!-- p_good_distance -->
<g id="node5" class="node">
<title>p_good_distance</title>
<polygon fill="none" stroke="#000000" points="645.5,-147 448.5,-147 448.5,-111 645.5,-111 645.5,-147"/>
<text text-anchor="middle" x="547" y="-125.3" font-family="Times,serif" font-size="14.00" fill="#000000">p_good_distance ~ Deterministic</text>
</g>
<!-- variance_of_distance&#45;&gt;p_good_distance -->
<g id="edge3" class="edge">
<title>variance_of_distance&#45;&gt;p_good_distance</title>
<path fill="none" stroke="#000000" d="M547,-182.8314C547,-175.131 547,-165.9743 547,-157.4166"/>
<polygon fill="#000000" stroke="#000000" points="550.5001,-157.4132 547,-147.4133 543.5001,-157.4133 550.5001,-157.4132"/>
</g>
<!-- angle_of_shot_radians -->
<g id="node3" class="node">
<title>angle_of_shot_radians</title>
<ellipse fill="none" stroke="#000000" cx="182" cy="-201" rx="142.9746" ry="18"/>
<text text-anchor="middle" x="182" y="-197.3" font-family="Times,serif" font-size="14.00" fill="#000000">angle_of_shot_radians ~ HalfNormal</text>
</g>
<!-- angle_of_shot_radians&#45;&gt;angle_of_shot_degrees -->
<g id="edge1" class="edge">
<title>angle_of_shot_radians&#45;&gt;angle_of_shot_degrees</title>
<path fill="none" stroke="#000000" d="M165.0931,-182.8314C157.2187,-174.3694 147.708,-164.1489 139.0987,-154.8971"/>
<polygon fill="#000000" stroke="#000000" points="141.5092,-152.3497 132.1346,-147.4133 136.3847,-157.1183 141.5092,-152.3497"/>
</g>
<!-- p_good_angle -->
<g id="node4" class="node">
<title>p_good_angle</title>
<polygon fill="none" stroke="#000000" points="430,-147 248,-147 248,-111 430,-111 430,-147"/>
<text text-anchor="middle" x="339" y="-125.3" font-family="Times,serif" font-size="14.00" fill="#000000">p_good_angle ~ Deterministic</text>
</g>
<!-- angle_of_shot_radians&#45;&gt;p_good_angle -->
<g id="edge2" class="edge">
<title>angle_of_shot_radians&#45;&gt;p_good_angle</title>
<path fill="none" stroke="#000000" d="M220.0053,-183.5708C241.2219,-173.8409 267.8733,-161.6186 290.5724,-151.2088"/>
<polygon fill="#000000" stroke="#000000" points="292.0744,-154.3706 299.7051,-147.0206 289.1563,-148.0078 292.0744,-154.3706"/>
</g>
<!-- p_success -->
<g id="node6" class="node">
<title>p_success</title>
<ellipse fill="#d3d3d3" stroke="#000000" cx="443" cy="-57" rx="89.0842" ry="18"/>
<text text-anchor="middle" x="443" y="-53.3" font-family="Times,serif" font-size="14.00" fill="#000000">p_success ~ Binomial</text>
</g>
<!-- p_good_angle&#45;&gt;p_success -->
<g id="edge4" class="edge">
<title>p_good_angle&#45;&gt;p_success</title>
<path fill="none" stroke="#000000" d="M365.2436,-110.8314C378.5985,-101.5857 394.9857,-90.2407 409.267,-80.3536"/>
<polygon fill="#000000" stroke="#000000" points="411.6114,-82.9875 417.8411,-74.4177 407.6269,-77.2322 411.6114,-82.9875"/>
</g>
<!-- p_good_distance&#45;&gt;p_success -->
<g id="edge5" class="edge">
<title>p_good_distance&#45;&gt;p_success</title>
<path fill="none" stroke="#000000" d="M520.7564,-110.8314C507.4015,-101.5857 491.0143,-90.2407 476.733,-80.3536"/>
<polygon fill="#000000" stroke="#000000" points="478.3731,-77.2322 468.1589,-74.4177 474.3886,-82.9875 478.3731,-77.2322"/>
</g>
</g>
</svg>
