<svg width="500" height="400" xmlns="http://www.w3.org/2000/svg">
  <defs>
    <style>
      .title { font-family: Arial, sans-serif; font-size: 18px; font-weight: bold; fill: #2c3e50; }
      .axis-label { font-family: Arial, sans-serif; font-size: 14px; fill: #2c3e50; }
      .formula-label { font-family: Arial, sans-serif; font-size: 12px; fill: #3498db; }
      .memory-label { font-family: Arial, sans-serif; font-size: 12px; fill: #e74c3c; }
      .compute-roof { stroke: #3498db; stroke-width: 3; fill: none; }
      .memory-roof { stroke: #e74c3c; stroke-width: 3; fill: none; }
      .axis { stroke: #2c3e50; stroke-width: 2; fill: none; }
      .grid { stroke: #bdc3c7; stroke-width: 1; fill: none; }
      .kernel-dot { fill: #27ae60; stroke: #27ae60; stroke-width: 2; }
    </style>
  </defs>
  
  <!-- Title -->
  <text x="250" y="25" text-anchor="middle" class="title">Naïve Roofline Model</text>
  
  <!-- Axes -->
  <line x1="80" y1="350" x2="450" y2="350" class="axis"/>
  <line x1="80" y1="350" x2="80" y2="80" class="axis"/>
  
  <!-- Grid lines -->
  <line x1="80" y1="300" x2="450" y2="300" class="grid"/>
  <line x1="80" y1="250" x2="450" y2="250" class="grid"/>
  <line x1="80" y1="200" x2="450" y2="200" class="grid"/>
  <line x1="80" y1="150" x2="450" y2="150" class="grid"/>
  <line x1="80" y1="100" x2="450" y2="100" class="grid"/>
  
  <line x1="150" y1="350" x2="150" y2="80" class="grid"/>
  <line x1="220" y1="350" x2="220" y2="80" class="grid"/>
  <line x1="290" y1="350" x2="290" y2="80" class="grid"/>
  <line x1="360" y1="350" x2="360" y2="80" class="grid"/>
  
  <!-- Compute roof (horizontal line) -->
  <line x1="80" y1="150" x2="450" y2="150" class="compute-roof"/>
  <text x="400" y="145" class="formula-label">P_peak</text>
  
  <!-- Memory roof (slanted line) -->
  <line x1="80" y1="350" x2="290" y2="150" class="memory-roof"/>
  <text x="200" y="280" class="memory-label">I · b_s</text>
  
  <!-- Kernel dot -->
  <circle cx="250" cy="200" r="6" class="kernel-dot"/>
  <text x="260" y="205" class="axis-label">Kernel</text>
  
  <!-- Axis labels -->
  <text x="265" y="375" class="axis-label">Intensity</text>
  <text x="30" y="220" class="axis-label" transform="rotate(-90 30 220)">Performance</text>
  
  <!-- Y-axis ticks -->
  <text x="70" y="155" class="axis-label" text-anchor="end">g</text>
  <text x="70" y="205" class="axis-label" text-anchor="end">f</text>
  <text x="70" y="255" class="axis-label" text-anchor="end">e</text>
  <text x="70" y="305" class="axis-label" text-anchor="end">d</text>
  <text x="70" y="355" class="axis-label" text-anchor="end">c</text>
  
  <!-- X-axis ticks -->
  <text x="80" y="370" class="axis-label" text-anchor="middle">a</text>
  <text x="150" y="370" class="axis-label" text-anchor="middle">b</text>
  <text x="220" y="370" class="axis-label" text-anchor="middle">c</text>
  <text x="290" y="370" class="axis-label" text-anchor="middle">d</text>
  <text x="360" y="370" class="axis-label" text-anchor="middle">e</text>
  
  <!-- Arrow pointing to intersection -->
  <path d="M 290 130 L 290 150" stroke="#7f8c8d" stroke-width="2" fill="none" marker-end="url(#arrowhead)"/>
  <text x="295" y="125" class="axis-label">Critical I*</text>
  
  <!-- Define arrow marker -->
  <defs>
    <marker id="arrowhead" markerWidth="10" markerHeight="7" refX="9" refY="3.5" orient="auto">
      <polygon points="0 0, 10 3.5, 0 7" fill="#7f8c8d"/>
    </marker>
  </defs>
</svg>
